<svg xmlns="http://www.w3.org/2000/svg" viewBox="78.5 27.38 228 490.12" width="228" height="490.12">
	<path
		id="Selection"
		fill="#0ea5e9"
		stroke="#0ea5e9"
		stroke-width="2"
		d="M 107.00,329.00            C 113.89,320.51 117.57,309.28 121.00,299.00              129.01,274.99 132.95,245.28 133.00,220.00              133.00,217.81 132.79,214.16 134.02,212.31              136.97,207.89 145.64,210.91 148.26,214.34              150.47,217.23 150.04,222.47 150.00,226.00              150.00,226.00 149.09,236.00 149.09,236.00              149.09,236.00 147.83,257.00 147.83,257.00              145.85,277.13 136.79,312.44 127.14,330.00              123.45,336.70 116.68,346.78 110.96,351.67              107.47,354.67 103.48,356.97 99.10,354.14              94.79,351.36 92.82,343.76 91.42,339.00              91.42,339.00 82.92,299.00 82.92,299.00              82.92,299.00 79.00,256.00 79.00,256.00              79.00,256.00 79.00,226.00 79.00,226.00              79.00,226.00 79.91,214.00 79.91,214.00              82.08,182.28 87.08,151.03 98.05,121.00              107.06,96.34 118.91,72.42 135.61,52.00              141.67,44.60 151.11,33.72 160.00,29.95              166.26,27.30 176.09,27.92 183.00,28.00              211.93,28.34 252.98,43.03 278.00,57.28              294.19,66.50 306.44,74.81 305.99,95.00              305.45,118.63 293.20,136.96 268.00,137.00              256.63,137.02 244.61,135.07 238.14,147.00              233.72,155.13 240.56,170.50 243.00,179.00              248.59,198.47 250.23,218.82 250.00,239.00              249.80,256.15 245.40,277.51 240.58,294.00              236.40,308.29 231.62,318.80 230.17,334.00              229.47,341.35 232.11,359.51 233.88,367.00              240.50,394.88 252.62,421.42 268.88,445.00              268.88,445.00 289.37,473.00 289.37,473.00              293.36,478.31 298.50,484.31 299.67,491.00              303.26,511.47 281.81,517.18 266.00,517.00              249.63,516.81 223.20,508.95 208.00,502.58              204.02,500.91 191.68,496.90 191.74,491.96              191.79,487.43 198.22,480.74 203.00,481.69              203.00,481.69 220.00,488.80 220.00,488.80              232.43,493.77 252.76,500.85 266.00,501.00              271.40,501.06 284.30,500.86 281.67,492.00              281.21,490.45 279.86,488.36 278.96,487.00              278.96,487.00 249.69,446.00 249.69,446.00              236.98,426.26 226.02,401.58 219.58,379.00              216.02,366.54 212.48,348.90 213.04,336.00              214.33,306.22 232.60,274.75 233.00,241.00              233.13,229.90 233.12,219.02 231.72,208.00              231.72,208.00 228.87,193.00 228.87,193.00              223.75,171.93 210.47,145.47 231.00,128.33              233.74,126.05 236.66,124.32 240.00,123.09              245.24,121.17 248.54,121.01 254.00,121.00              254.00,121.00 262.00,121.00 262.00,121.00              268.24,120.99 275.86,120.57 280.90,116.44              287.40,111.12 291.22,94.73 288.26,87.00              287.38,84.68 285.74,82.86 283.96,81.18              276.10,73.82 253.51,63.19 243.00,59.00              226.84,52.56 207.30,46.99 190.00,45.08              183.49,44.32 175.31,42.91 169.00,45.08              155.95,49.64 140.94,73.21 134.01,85.00              113.48,119.95 103.92,156.14 98.72,196.00              98.72,196.00 96.00,227.00 96.00,227.00              95.97,246.81 95.89,266.31 98.28,286.00              98.28,286.00 103.23,315.00 103.23,315.00              103.23,315.00 107.00,329.00 107.00,329.00 Z            M 211.00,60.64            C 215.03,60.64 218.60,61.20 221.96,63.65              235.50,73.53 228.05,95.49 211.00,93.80              197.91,92.51 190.44,77.90 198.80,67.10              201.90,63.09 206.18,61.49 211.00,60.64 Z            M 112.00,371.74            C 121.15,369.76 121.30,375.14 123.69,382.00              123.69,382.00 127.20,391.00 127.20,391.00              133.45,406.48 145.95,426.51 155.88,440.00              155.88,440.00 169.44,457.00 169.44,457.00              172.88,461.99 172.00,469.23 165.96,471.72              162.74,473.05 160.28,470.91 158.00,468.89              153.03,464.49 148.90,459.19 144.80,454.00              133.61,439.82 117.20,413.48 109.86,397.00              105.44,387.06 99.39,378.32 112.00,371.74 Z"
	/>
</svg>